<?xml version="1.0" standalone="no"?><!DOCTYPE svg PUBLIC "-//W3C//DTD SVG 1.1//EN" "http://www.w3.org/Graphics/SVG/1.1/DTD/svg11.dtd"><svg t="1700570323523" class="icon" viewBox="0 0 1024 1024" version="1.1" xmlns="http://www.w3.org/2000/svg" p-id="8090" xmlns:xlink="http://www.w3.org/1999/xlink" width="16" height="16"><path d="M512.14336 0a512 512 0 1 1 0 1024 512 512 0 0 1 0-1024z m71.3728 380.55936h-5.4272c-48.70144 18.944-121.81504 10.81344-170.55744 29.75744v13.57824c70.41024 0 51.46624 43.29472 37.888 94.76096-16.22016 62.2592-48.7424 143.36-54.1696 200.35584-5.4272 56.97536 29.7984 78.5408 65.024 78.5408 48.7424 0 89.35424-48.7424 111.0016-75.83744 5.4272-5.4272 46.08-48.7424 21.66784-54.1696-21.66784-5.12-43.3152 81.26464-83.92704 65.024-2.70336 0-2.70336 0-5.4272-2.72384 10.81344-121.856 59.55584-230.4 83.92704-349.2864z m-21.66784-178.72896a59.5968 59.5968 0 1 0 59.5968 59.5968 60.1088 60.1088 0 0 0-59.5968-59.5968z" p-id="8091"></path></svg>